<svg id="visual" viewBox="0 0 960 540" width="960" height="540" xmlns="http://www.w3.org/2000/svg" xmlns:xlink="http://www.w3.org/1999/xlink" version="1.1"><rect x="0" y="0" width="960" height="540" fill="#001220"></rect><path d="M0 380L22.8 374.7C45.7 369.3 91.3 358.7 137 358.8C182.7 359 228.3 370 274 373.7C319.7 377.3 365.3 373.7 411.2 370C457 366.3 503 362.7 548.8 364C594.7 365.3 640.3 371.7 686 364.2C731.7 356.7 777.3 335.3 823 339.3C868.7 343.3 914.3 372.7 937.2 387.3L960 402L960 541L937.2 541C914.3 541 868.7 541 823 541C777.3 541 731.7 541 686 541C640.3 541 594.7 541 548.8 541C503 541 457 541 411.2 541C365.3 541 319.7 541 274 541C228.3 541 182.7 541 137 541C91.3 541 45.7 541 22.8 541L0 541Z" fill="#fa7268"></path><path d="M0 392L22.8 394.8C45.7 397.7 91.3 403.3 137 397C182.7 390.7 228.3 372.3 274 365.7C319.7 359 365.3 364 411.2 364.8C457 365.7 503 362.3 548.8 368.3C594.7 374.3 640.3 389.7 686 393.7C731.7 397.7 777.3 390.3 823 391.2C868.7 392 914.3 401 937.2 405.5L960 410L960 541L937.2 541C914.3 541 868.7 541 823 541C777.3 541 731.7 541 686 541C640.3 541 594.7 541 548.8 541C503 541 457 541 411.2 541C365.3 541 319.7 541 274 541C228.3 541 182.7 541 137 541C91.3 541 45.7 541 22.8 541L0 541Z" fill="#ef5f67"></path><path d="M0 400L22.8 408.8C45.7 417.7 91.3 435.3 137 444.7C182.7 454 228.3 455 274 453C319.7 451 365.3 446 411.2 441.3C457 436.7 503 432.3 548.8 427.8C594.7 423.3 640.3 418.7 686 416.3C731.7 414 777.3 414 823 418.2C868.7 422.3 914.3 430.7 937.2 434.8L960 439L960 541L937.2 541C914.3 541 868.7 541 823 541C777.3 541 731.7 541 686 541C640.3 541 594.7 541 548.8 541C503 541 457 541 411.2 541C365.3 541 319.7 541 274 541C228.3 541 182.7 541 137 541C91.3 541 45.7 541 22.8 541L0 541Z" fill="#e34c67"></path><path d="M0 462L22.8 461.7C45.7 461.3 91.3 460.7 137 458.8C182.7 457 228.3 454 274 456.3C319.7 458.7 365.3 466.3 411.2 465.2C457 464 503 454 548.8 455.7C594.7 457.3 640.3 470.7 686 475C731.7 479.3 777.3 474.7 823 470C868.7 465.3 914.3 460.7 937.2 458.3L960 456L960 541L937.2 541C914.3 541 868.7 541 823 541C777.3 541 731.7 541 686 541C640.3 541 594.7 541 548.8 541C503 541 457 541 411.2 541C365.3 541 319.7 541 274 541C228.3 541 182.7 541 137 541C91.3 541 45.7 541 22.8 541L0 541Z" fill="#d53867"></path><path d="M0 485L22.8 489.3C45.7 493.7 91.3 502.3 137 501.8C182.7 501.3 228.3 491.7 274 490.7C319.7 489.7 365.3 497.3 411.2 497.5C457 497.7 503 490.3 548.8 489.3C594.7 488.3 640.3 493.7 686 494.8C731.7 496 777.3 493 823 495.8C868.7 498.7 914.3 507.3 937.2 511.7L960 516L960 541L937.2 541C914.3 541 868.7 541 823 541C777.3 541 731.7 541 686 541C640.3 541 594.7 541 548.8 541C503 541 457 541 411.2 541C365.3 541 319.7 541 274 541C228.3 541 182.7 541 137 541C91.3 541 45.7 541 22.8 541L0 541Z" fill="#c62368"></path></svg>