<svg id="visual" viewBox="0 0 960 300" width="960" height="300" xmlns="http://www.w3.org/2000/svg" xmlns:xlink="http://www.w3.org/1999/xlink" version="1.1"><rect x="0" y="0" width="960" height="300" fill="#001220"></rect><path d="M0 211L22.8 208C45.7 205 91.3 199 137 199C182.7 199 228.3 205 274 207C319.7 209 365.3 207 411.2 205C457 203 503 201 548.8 201.8C594.7 202.7 640.3 206.3 686 202.2C731.7 198 777.3 186 823 188.2C868.7 190.3 914.3 206.7 937.2 214.8L960 223L960 301L937.2 301C914.3 301 868.7 301 823 301C777.3 301 731.7 301 686 301C640.3 301 594.7 301 548.8 301C503 301 457 301 411.2 301C365.3 301 319.7 301 274 301C228.3 301 182.7 301 137 301C91.3 301 45.7 301 22.8 301L0 301Z" fill="#fa7268"></path><path d="M0 217L22.8 218.7C45.7 220.3 91.3 223.7 137 220.2C182.7 216.7 228.3 206.3 274 202.5C319.7 198.7 365.3 201.3 411.2 201.8C457 202.3 503 200.7 548.8 204C594.7 207.3 640.3 215.7 686 218C731.7 220.3 777.3 216.7 823 217.2C868.7 217.7 914.3 222.3 937.2 224.7L960 227L960 301L937.2 301C914.3 301 868.7 301 823 301C777.3 301 731.7 301 686 301C640.3 301 594.7 301 548.8 301C503 301 457 301 411.2 301C365.3 301 319.7 301 274 301C228.3 301 182.7 301 137 301C91.3 301 45.7 301 22.8 301L0 301Z" fill="#ef5f67"></path><path d="M0 222L22.8 226.8C45.7 231.7 91.3 241.3 137 246.5C182.7 251.7 228.3 252.3 274 251.3C319.7 250.3 365.3 247.7 411.2 245C457 242.3 503 239.7 548.8 237.2C594.7 234.7 640.3 232.3 686 231.2C731.7 230 777.3 230 823 232.2C868.7 234.3 914.3 238.7 937.2 240.8L960 243L960 301L937.2 301C914.3 301 868.7 301 823 301C777.3 301 731.7 301 686 301C640.3 301 594.7 301 548.8 301C503 301 457 301 411.2 301C365.3 301 319.7 301 274 301C228.3 301 182.7 301 137 301C91.3 301 45.7 301 22.8 301L0 301Z" fill="#e34c67"></path><path d="M0 256L22.8 255.8C45.7 255.7 91.3 255.3 137 254.3C182.7 253.3 228.3 251.7 274 253C319.7 254.3 365.3 258.7 411.2 258C457 257.3 503 251.7 548.8 252.7C594.7 253.7 640.3 261.3 686 263.8C731.7 266.3 777.3 263.7 823 261C868.7 258.3 914.3 255.7 937.2 254.3L960 253L960 301L937.2 301C914.3 301 868.7 301 823 301C777.3 301 731.7 301 686 301C640.3 301 594.7 301 548.8 301C503 301 457 301 411.2 301C365.3 301 319.7 301 274 301C228.3 301 182.7 301 137 301C91.3 301 45.7 301 22.8 301L0 301Z" fill="#d53867"></path><path d="M0 269L22.8 271.5C45.7 274 91.3 279 137 278.7C182.7 278.3 228.3 272.7 274 272C319.7 271.3 365.3 275.7 411.2 275.8C457 276 503 272 548.8 271.5C594.7 271 640.3 274 686 274.7C731.7 275.3 777.3 273.7 823 275.2C868.7 276.7 914.3 281.3 937.2 283.7L960 286L960 301L937.2 301C914.3 301 868.7 301 823 301C777.3 301 731.7 301 686 301C640.3 301 594.7 301 548.8 301C503 301 457 301 411.2 301C365.3 301 319.7 301 274 301C228.3 301 182.7 301 137 301C91.3 301 45.7 301 22.8 301L0 301Z" fill="#c62368"></path></svg>